<svg width="37" height="36" viewBox="0 0 37 36" fill="none" xmlns="http://www.w3.org/2000/svg">
<circle cx="18.499" cy="18" r="18" fill="#FFD36A"/>
<path fill-rule="evenodd" clip-rule="evenodd" d="M12.6517 25.1574L19.9548 10.1889L19.5917 9.44163C19.3879 9.06796 19.0969 8.99935 18.8558 9C18.6156 9.00066 18.3123 9.15852 18.1764 9.43031L11.0885 23.9912C10.9526 24.2743 10.9866 24.58 11.1111 24.7724C11.2255 24.9493 11.4847 25.1574 11.7905 25.1574H12.6517ZM19.9348 17.6288L18.8818 15.4661L14.737 23.9807C14.5898 24.2864 14.6589 24.6184 14.7823 24.8072C14.9012 24.9894 15.1899 25.1583 15.439 25.1583H23.6033L22.6862 23.2448H17.1947L19.9348 17.6288ZM25.1386 25.1583L23.5534 21.9087H19.364L20.2812 20.0178H22.6249L19.6471 13.9036L20.7001 11.741L26.689 24.0147C26.8022 24.2638 26.7456 24.6035 26.6211 24.796C26.503 24.9784 26.2361 25.1583 25.9643 25.1583H25.1386Z" fill="#284D48"/>
</svg>
