<svg width="36" height="36" viewBox="0 0 36 36" fill="none" xmlns="http://www.w3.org/2000/svg">
<circle cx="18" cy="18" r="18" fill="#FFD36A"/>
<path d="M16.9697 17.2966C17.9635 16.8216 18.4822 16.1029 18.4822 14.9841C18.4822 12.7779 16.8385 12.2404 14.9416 12.2404H9.71973V23.3154H15.0885C17.101 23.3154 18.9916 22.3497 18.9916 20.0997C18.9916 18.7091 18.3322 17.681 16.9697 17.2966ZM12.1541 14.131H14.4385C15.3166 14.131 16.1072 14.3779 16.1072 15.3966C16.1072 16.3372 15.4916 16.7154 14.6229 16.7154H12.1541V14.131ZM14.7572 21.4341H12.1541V18.3841H14.8072C15.8791 18.3841 16.5572 18.831 16.5572 19.9654C16.5572 21.0841 15.7479 21.4341 14.7572 21.4341ZM25.9604 13.9122H21.4697V12.8216H25.9604V13.9122ZM27.7197 19.4216C27.7197 17.0497 26.3322 15.0716 23.8166 15.0716C21.3729 15.0716 19.7135 16.9091 19.7135 19.3154C19.7135 21.8122 21.2854 23.5247 23.8166 23.5247C25.7322 23.5247 26.9729 22.6622 27.5697 20.8279H25.626C25.4166 21.5122 24.5541 21.8747 23.8854 21.8747C22.5947 21.8747 21.9166 21.1185 21.9166 19.8341H27.701C27.7104 19.7029 27.7197 19.5622 27.7197 19.4216ZM21.9197 18.4466C21.9916 17.3935 22.6916 16.7341 23.7479 16.7341C24.8541 16.7341 25.4104 17.3841 25.5041 18.4466H21.9197Z" fill="#284D48"/>
</svg>
