<svg width="140" height="210" viewBox="0 0 140 210" fill="none" xmlns="http://www.w3.org/2000/svg">
<rect width="140" height="210" fill="#8DC2BC"/>
<path fill-rule="evenodd" clip-rule="evenodd" d="M70.3562 63.0771C68.5339 61.5345 63.5403 59.2688 56.9694 61.7182C55.6109 62.2111 52.8753 62.2543 52.8012 58.4836C52.7271 54.713 52.7703 43.4812 52.8012 38.3367C52.7085 37.7206 52.8382 36.285 54.098 35.4718C55.6651 34.46 66.4068 30.2445 70.4356 35.8524C74.4812 30.2771 85.1871 34.4889 86.7515 35.5012C88.0112 36.3163 88.1409 37.7551 88.0483 38.3727C88.0791 43.529 88.1224 54.7865 88.0483 58.5658C87.9742 62.345 85.2385 62.3018 83.88 61.8078C77.3091 59.3527 72.3154 61.6236 70.4931 63.1697V63.1969C70.488 63.1923 70.4828 63.1876 70.4776 63.1829C70.4354 63.219 70.3949 63.2547 70.3562 63.2899V63.0771Z" fill="#F3BD36"/>
<path fill-rule="evenodd" clip-rule="evenodd" d="M83.3975 55.3379V36.228C83.3975 35.8856 83.2644 35.5641 83.0213 35.3232C82.7814 35.0841 82.4633 34.953 82.127 34.953C82.1255 34.953 82.1244 34.953 82.1235 34.953C79.1438 34.9601 73.9936 32.8784 71.1727 37.4103C71.058 37.5948 70.7281 38.1705 70.7281 38.4082V57.9058C74.1641 54.3181 79.146 56.6184 82.1186 56.6122C82.8241 56.61 83.3975 56.0394 83.3975 55.3379Z" fill="#FFEFC9"/>
<path fill-rule="evenodd" clip-rule="evenodd" d="M83.398 57.9271C80.4506 57.9345 74.1612 55.4084 70.7287 58.9143V60.7242C74.4761 56.8102 80.8768 59.6628 84.1185 59.6547C84.8883 59.6529 86.0806 58.8564 86.0806 58.0916V37.5961C86.0806 37.1233 84.9932 36.2696 84.458 36.2139V56.5578C84.4579 57.2586 84.1032 57.9255 83.398 57.9271Z" fill="#678985"/>
<path fill-rule="evenodd" clip-rule="evenodd" d="M57.1328 55.3378V36.228C57.1328 35.8856 57.2659 35.5641 57.509 35.3232C57.7489 35.0841 58.067 34.953 58.4033 34.953C58.4048 34.953 58.4059 34.953 58.4068 34.953C61.3865 34.9601 66.5369 32.8784 69.3579 37.4103C69.4725 37.5948 69.8025 38.1705 69.8025 38.4082V57.9057C66.3664 54.318 61.3844 56.6184 58.4117 56.6122C57.7062 56.61 57.1328 56.0394 57.1328 55.3378Z" fill="#FFEFC9"/>
<path fill-rule="evenodd" clip-rule="evenodd" d="M57.1323 57.9271C60.0798 57.9345 66.3694 55.4083 69.8021 58.9143V60.7242C66.0546 56.8102 59.6537 59.6628 56.4118 59.6547C55.642 59.6529 54.4497 58.8564 54.4497 58.0916V37.5961C54.4497 37.1233 55.5371 36.2696 56.0723 36.2139V56.5578C56.0724 57.2586 56.4272 57.9254 57.1323 57.9271Z" fill="#678985"/>
<path d="M30.04 78.6284C28.9152 78.6284 28 77.7132 28 76.5884V68.1559C28 65.1297 30.4621 62.6676 33.4883 62.6676H34.0743C35.6128 62.6676 36.9623 62.9458 38.0849 63.4948C38.9738 63.9298 40.4632 65.0426 40.4632 67.6131C40.4632 68.4095 40.2791 69.1827 39.9152 69.9155C39.9172 69.9177 39.9191 69.9197 39.9211 69.9219C40.6739 70.753 41.0553 71.8311 41.0553 73.1274C41.0553 75.5486 39.8181 76.8309 38.7806 77.4801C37.5642 78.2417 36.0988 78.6281 34.4259 78.6281H30.04V78.6284Z" fill="#F3BD36"/>
<path d="M43.7548 78.8506C42.6501 78.8506 41.5966 78.5798 40.624 78.0458C39.627 77.4978 38.8187 76.6985 38.2214 75.6698C37.6292 74.6511 37.3286 73.447 37.3286 72.0916C37.3286 70.7362 37.6292 69.5322 38.2217 68.5128C38.8184 67.485 39.6267 66.6861 40.6234 66.1381C41.5963 65.6037 42.6497 65.3326 43.7545 65.3326C44.8472 65.3326 45.8942 65.6034 46.8664 66.1377C47.8624 66.6854 48.6708 67.484 49.2684 68.5125C49.8612 69.5328 50.1615 70.7366 50.1615 72.0913C50.1615 73.446 49.8612 74.6501 49.2688 75.6698C48.6705 76.6989 47.8621 77.4978 46.8664 78.0451C45.8945 78.5798 44.8475 78.8506 43.7548 78.8506Z" fill="#F3BD36"/>
<path d="M52.9115 78.8506C51.8068 78.8506 50.7534 78.5798 49.7807 78.0458C48.7838 77.4978 47.9754 76.6985 47.3781 75.6698C46.786 74.6511 46.4854 73.447 46.4854 72.0916C46.4854 70.7362 46.786 69.5322 47.3784 68.5128C47.9751 67.485 48.7835 66.6861 49.7801 66.1381C50.753 65.6037 51.8065 65.3326 52.9112 65.3326C54.0039 65.3326 55.0509 65.6034 56.0232 66.1377C57.0192 66.6854 57.8275 67.484 58.4252 68.5125C59.018 69.5328 59.3183 70.7366 59.3183 72.0913C59.3183 73.446 59.018 74.6501 58.4255 75.6698C57.8272 76.6989 57.0188 77.4978 56.0232 78.0451C55.0512 78.5798 54.0043 78.8506 52.9115 78.8506Z" fill="#F3BD36"/>
<path d="M64.9836 78.6282C63.9084 78.6282 62.8936 78.1464 62.2115 77.3393C61.6788 78.1172 60.7844 78.6282 59.7728 78.6282H58.2246C57.0997 78.6282 56.1846 77.7133 56.1846 76.5885V63.801C56.1846 62.6761 57.0997 61.761 58.2246 61.761C60.7068 61.761 62.7264 63.7806 62.7264 66.2627V66.4309C63.7227 65.8618 64.8605 65.5544 66.0461 65.5544H66.5188C67.3106 65.5544 68.0375 66.0189 68.3702 66.7377C68.7026 67.4564 68.5868 68.3109 68.0741 68.9147L65.9176 71.4426L68.5085 75.4883C68.9104 76.1138 68.9387 76.9108 68.5812 77.5659C68.2232 78.2214 67.5372 78.6278 66.7905 78.6278H64.9836V78.6282Z" fill="#F3BD36"/>
<path d="M76.4267 78.6284C75.2353 78.6284 74.1494 78.0096 73.5183 77.0542C72.9184 78.008 71.8552 78.6284 70.6803 78.6284H69.8061C68.0845 78.6284 66.6071 77.3996 66.2928 75.7073L64.321 65.08C64.2103 64.481 64.3697 63.8701 64.7589 63.4029C65.1475 62.9358 65.7192 62.6676 66.3269 62.6676C67.9715 62.6676 69.4691 63.4789 70.3998 64.7398C70.7988 63.5071 71.9373 62.6676 73.2553 62.6676H73.7546C75.0898 62.6676 76.2507 63.4841 76.7143 64.7005C77.6029 63.4652 79.054 62.6676 80.6502 62.6676C81.256 62.6676 81.8264 62.9341 82.215 63.3987C82.6036 63.8636 82.7649 64.4719 82.6578 65.0683L80.7252 75.9319C80.4473 77.4944 79.0936 78.6281 77.5071 78.6281H76.4267V78.6284Z" fill="#F3BD36"/>
<path d="M85.0375 78.8501C83.9328 78.8501 82.8797 78.5794 81.9067 78.0454C80.9101 77.4974 80.1014 76.6985 79.5041 75.6694C78.9119 74.6503 78.6113 73.4463 78.6113 72.0912C78.6113 70.7365 78.9119 69.5324 79.5044 68.5128C80.1014 67.4846 80.9098 66.6854 81.9064 66.1377C82.8793 65.6034 83.9325 65.3326 85.0375 65.3326C86.1299 65.3326 87.1769 65.6034 88.1495 66.1377C89.1455 66.6854 89.9538 67.4843 90.5515 68.5124C91.1443 69.5334 91.4446 70.7372 91.4446 72.0916C91.4446 73.4459 91.1443 74.65 90.5521 75.6697C89.9532 76.6991 89.1452 77.498 88.1498 78.0454C87.1769 78.5794 86.1299 78.8501 85.0375 78.8501Z" fill="#F3BD36"/>
<path d="M90.3462 78.6289C89.2213 78.6289 88.3062 77.7137 88.3062 76.5889V67.5947C88.3062 66.4699 89.2213 65.5547 90.3462 65.5547H90.8539C91.5804 65.5547 92.2632 65.7615 92.842 66.1218C92.8546 66.1134 92.8673 66.1053 92.8803 66.0968C93.6675 65.5894 94.4957 65.3326 95.3423 65.3326C95.7475 65.3326 96.0942 65.3661 96.4029 65.4343C96.6058 65.4794 96.7983 65.5323 96.9772 65.592C97.9359 65.9092 98.5215 66.9042 98.3342 67.9041L97.9998 69.6721C97.7833 70.8226 96.774 71.6589 95.6001 71.6592C95.4712 71.6592 95.3407 71.6488 95.2131 71.628C95.193 71.6248 95.1488 71.619 95.0722 71.6164C95.0541 71.6258 95.0294 71.6404 94.9976 71.6618H94.9979C95.0005 71.6618 94.9706 71.6956 94.9223 71.7803V74.9488C94.9223 76.9778 93.2718 78.6282 91.2428 78.6282H90.3462V78.6289Z" fill="#F3BD36"/>
<path d="M107.424 78.6285C106.671 78.6285 106.012 78.2188 105.659 77.6104C105.057 78.2376 104.211 78.6285 103.276 78.6285H102.002C101.305 78.6285 100.688 78.2772 100.32 77.7422C99.7814 78.2892 99.0324 78.6285 98.2059 78.6285H96.5986C95.4737 78.6285 94.5586 77.7136 94.5586 76.5888V67.5947C94.5586 66.4698 95.4737 65.5547 96.5986 65.5547H97.5281C98.1465 65.5547 98.7279 65.7199 99.2272 66.0124C99.959 65.5615 100.811 65.3326 101.762 65.3326C102.801 65.3326 103.695 65.5751 104.418 66.0537C104.447 66.0728 104.476 66.0923 104.504 66.1121C105.278 65.5949 106.179 65.3326 107.184 65.3326C109.245 65.3326 110.371 66.3221 110.953 67.1522C111.648 68.144 112 69.4318 112 70.9813V75.2889C112 77.1303 110.502 78.6285 108.66 78.6285H107.424V78.6285Z" fill="#F3BD36"/>
<path d="M109.891 67.8976C109.301 67.0571 108.391 66.6312 107.185 66.6312C106.44 66.6312 105.779 66.8208 105.222 67.1948C104.951 67.3766 104.686 67.5798 104.428 67.8018C104.218 67.5395 103.975 67.3172 103.703 67.1367C103.196 66.8013 102.543 66.6312 101.763 66.6312C101.035 66.6312 100.393 66.8062 99.8577 67.1506C99.6194 67.3038 99.3863 67.473 99.1604 67.6567C98.7848 67.163 98.1923 66.8532 97.5297 66.8532H96.6324C96.61 66.8432 96.5889 66.8315 96.5652 66.8237C96.4289 66.7783 96.2798 66.7374 96.1217 66.702C95.9068 66.6542 95.652 66.6312 95.3426 66.6312C94.7495 66.6312 94.158 66.8185 93.5844 67.1883C93.313 67.3636 93.0604 67.5814 92.8286 67.8411C92.3761 67.2379 91.6564 66.8536 90.8542 66.8536H90.3464C89.9374 66.8536 89.605 67.186 89.605 67.595V69.5029C89.5498 69.3877 89.4913 69.275 89.4277 69.1656C88.9498 68.344 88.3093 67.7083 87.523 67.2762C86.7446 66.8484 85.9076 66.6315 85.0363 66.6315C84.1523 66.6315 83.3096 66.8484 82.5308 67.2762C81.7435 67.709 81.103 68.3446 80.6258 69.166C80.6183 69.1786 80.6121 69.1926 80.6047 69.2052L81.3815 64.8392C81.4205 64.6227 81.3617 64.4013 81.2205 64.2324C81.0793 64.0633 80.8722 63.9666 80.6518 63.9666C78.9075 63.9666 77.4002 65.268 77.1457 66.9935C77.1457 66.9935 76.6749 70.1857 76.6736 70.1938C76.6681 70.1671 76.6629 70.1409 76.6574 70.1142L75.5799 65.4193C75.3838 64.5639 74.6336 63.9662 73.7561 63.9662H73.2568C72.4576 63.9662 71.7745 64.5103 71.5956 65.2895C71.5956 65.2895 70.4831 70.1379 70.4828 70.1392L70.0455 67.1753C69.7754 65.346 68.1775 63.9662 66.3284 63.9662C66.1073 63.9662 65.8999 64.0636 65.7583 64.2334C65.6168 64.4032 65.559 64.6253 65.5992 64.8428L65.9729 66.8568C64.3474 66.8782 62.8379 67.6132 61.8227 68.8868L61.4267 69.3838V66.2624C61.4267 64.4961 59.9898 63.0592 58.2235 63.0592C57.8147 63.0592 57.482 63.3916 57.482 63.8007V69.502C57.4268 69.3867 57.3684 69.2741 57.3047 69.165C56.8272 68.3433 56.1864 67.7077 55.3998 67.2756C54.6213 66.8477 53.7844 66.6309 52.913 66.6309C52.0294 66.6309 51.1863 66.8477 50.4075 67.2756C49.6205 67.708 48.9797 68.344 48.5028 69.165C48.4385 69.2754 48.3795 69.3893 48.3239 69.5059C48.2684 69.3896 48.2093 69.2757 48.1451 69.165C47.6675 68.3433 47.0267 67.7077 46.2401 67.2756C45.4616 66.8477 44.6247 66.6309 43.7534 66.6309C42.8697 66.6309 42.0266 66.8477 41.2478 67.2756C40.4609 67.708 39.82 68.344 39.3431 69.165C39.088 69.6039 38.9023 70.0922 38.7831 70.6223C38.6013 70.4454 38.4101 70.2824 38.2014 70.1477C38.3786 69.96 38.5351 69.7432 38.6695 69.4984C38.9987 68.8985 39.1659 68.2641 39.1659 67.6129C39.1659 65.8407 38.2686 65.0294 37.5158 64.661C36.5724 64.1997 35.415 63.9659 34.0756 63.9659H33.4896C31.1795 63.9659 29.2998 65.8456 29.2998 68.1557V76.5882C29.2998 76.9969 29.6322 77.3296 30.0413 77.3296H34.4271C35.8526 77.3296 37.0859 77.0099 38.093 76.3794C38.6513 76.0298 39.0698 75.5766 39.3477 75.025C39.8243 75.8428 40.4635 76.4762 41.2475 76.907C42.0263 77.3348 42.8694 77.5517 43.753 77.5517C44.6247 77.5517 45.4613 77.3348 46.2398 76.907C47.026 76.4749 47.6669 75.8392 48.1447 75.0172C48.2087 74.9069 48.2678 74.7929 48.3233 74.6767C48.3788 74.7929 48.4379 74.9069 48.5022 75.0169C48.9794 75.8386 49.6202 76.4745 50.4071 76.9066C51.1859 77.3345 52.029 77.5514 52.9127 77.5514C53.7844 77.5514 54.6209 77.3345 55.3994 76.9066C56.1857 76.4745 56.8265 75.8389 57.3044 75.0169C57.3677 74.9078 57.4265 74.7952 57.4813 74.6803V76.5878C57.4813 76.9966 57.8138 77.3293 58.2228 77.3293H59.771C60.6836 77.3293 61.426 76.5869 61.426 75.6743V74.6692L61.8318 74.2118L62.9681 76.1697C63.3833 76.8852 64.1549 77.3293 64.9818 77.3293H66.7887C67.0601 77.3293 67.3094 77.1813 67.4396 76.9433C67.5695 76.7054 67.5591 76.4158 67.4133 76.1882L64.3033 71.3319L66.356 68.9254L67.5704 75.4701C67.7704 76.5476 68.7112 77.3296 69.8072 77.3296H70.6815C71.6499 77.3296 72.4946 76.6411 72.69 75.6928L73.4824 71.8481L74.2953 75.6087C74.5109 76.606 75.4079 77.3296 76.4279 77.3296H77.508C78.464 77.3296 79.2798 76.6463 79.4477 75.7048L79.9505 72.8779C80.0385 73.6784 80.2638 74.3959 80.6251 75.0176C81.1024 75.8392 81.7432 76.4752 82.5301 76.9073C83.3086 77.3352 84.1517 77.552 85.0357 77.552C85.907 77.552 86.7439 77.3352 87.5224 76.9073C88.3084 76.4752 88.9495 75.8395 89.4274 75.0176C89.4907 74.9085 89.5491 74.7958 89.6043 74.6809V76.5885C89.6043 76.9972 89.9367 77.33 90.3458 77.33H91.2421C92.5549 77.33 93.623 76.2619 93.623 74.9491V71.481C93.809 71.0505 94.0265 70.7496 94.2703 70.5859C94.5359 70.4074 94.7781 70.3168 94.9907 70.3168C95.1527 70.3168 95.2955 70.3265 95.4196 70.3463C95.4799 70.3561 95.54 70.3606 95.5997 70.3606C95.689 70.3606 95.7747 70.347 95.8588 70.3272V76.5882C95.8588 76.9969 96.1912 77.3296 96.6003 77.3296H98.2076C99.1282 77.3296 99.8775 76.5804 99.8775 75.6597V70.7518C100.231 70.4217 100.548 70.2421 100.783 70.2421C101.044 70.2421 101.099 70.3188 101.117 70.3438C101.132 70.3642 101.262 70.5665 101.262 71.3323V76.5878C101.262 76.9966 101.595 77.3293 102.004 77.3293H103.277C104.382 77.3293 105.281 76.4304 105.281 75.3256V70.759C105.773 70.3136 106.067 70.2421 106.204 70.2421C106.453 70.2421 106.511 70.3197 106.536 70.3525C106.551 70.3726 106.684 70.5713 106.684 71.3323V76.5878C106.684 76.9966 107.016 77.3293 107.425 77.3293H108.662C109.787 77.3293 110.703 76.4138 110.703 75.2883V70.981C110.702 69.7036 110.429 68.6663 109.891 67.8976ZM33.3175 67.3746H33.9636C35.2017 67.3746 35.2017 67.795 35.2017 68.0206C35.2017 68.33 35.0806 68.4735 34.9751 68.5638C34.8738 68.6504 34.6054 68.7959 33.9451 68.7959H33.3175V67.3746ZM34.2041 73.9219H33.3175V72.1117H34.2041C35.7939 72.1117 35.7939 72.6941 35.7939 72.9428C35.7939 73.285 35.7939 73.9219 34.2041 73.9219ZM44.5189 73.5346C44.3676 73.8414 44.0377 74.0475 43.6985 74.0475C43.6488 74.0475 43.5992 74.043 43.5511 74.0342C43.3284 73.9937 43.1726 73.8784 43.0453 73.6606C42.8281 73.2889 42.7178 72.761 42.7178 72.0916C42.7178 71.4225 42.8278 70.8943 43.0453 70.5226C43.1729 70.3048 43.3287 70.1896 43.5518 70.1486C43.5998 70.1399 43.6491 70.1353 43.6988 70.1353C44.0384 70.1353 44.3682 70.3418 44.5195 70.6492C44.6971 71.0099 44.7873 71.4949 44.7873 72.0913C44.787 72.6886 44.6968 73.1743 44.5189 73.5346ZM53.6785 73.5346C53.5272 73.8414 53.1974 74.0475 52.8582 74.0475C52.8085 74.0475 52.7588 74.043 52.7108 74.0342C52.4881 73.9937 52.3322 73.8784 52.205 73.6606C51.9878 73.2889 51.8774 72.761 51.8774 72.0916C51.8774 71.4225 51.9875 70.8943 52.205 70.5226C52.3326 70.3048 52.4884 70.1896 52.7114 70.1486C52.7595 70.1399 52.8088 70.1353 52.8585 70.1353C53.1981 70.1353 53.5279 70.3418 53.6792 70.6492C53.8568 71.0099 53.947 71.4949 53.947 72.0913C53.9467 72.6886 53.8564 73.1743 53.6785 73.5346ZM85.8012 73.5349C85.6499 73.8414 85.3204 74.0475 84.9811 74.0475C84.9315 74.0475 84.8818 74.043 84.8337 74.0342C84.611 73.9937 84.4552 73.8784 84.3276 73.6606C84.1105 73.2885 84.0001 72.7607 84.0001 72.0913C84.0001 71.4222 84.1105 70.8943 84.3276 70.5223C84.4552 70.3045 84.6114 70.1889 84.8344 70.1483C84.8824 70.1396 84.9321 70.135 84.9811 70.135C85.3207 70.135 85.6505 70.3415 85.8015 70.6489C85.9794 71.0096 86.0693 71.4949 86.0693 72.0913C86.0696 72.6883 85.9791 73.1739 85.8012 73.5349Z" fill="#FFEFC9"/>
<path d="M29.9478 76.5887V68.1562C29.9478 66.2009 31.533 64.6157 33.4883 64.6157H34.0742C35.3199 64.6157 36.3717 64.8254 37.2291 65.2449C38.0864 65.6643 38.515 66.4541 38.515 67.6134C38.515 68.1565 38.3763 68.6808 38.0988 69.1863C37.8212 69.6924 37.4355 70.0375 36.9421 70.2225V70.2965C37.5462 70.4569 38.0582 70.7686 38.4779 71.2309C38.8974 71.6935 39.1071 72.3259 39.1071 73.1277C39.1071 74.3613 38.6539 75.2619 37.7472 75.8293C36.8405 76.3971 35.7331 76.6805 34.4258 76.6805H30.04C29.989 76.6809 29.9478 76.6396 29.9478 76.5887ZM32.6679 69.3535C32.6679 69.4044 32.7091 69.4457 32.7601 69.4457H33.9447C34.6109 69.4457 35.0949 69.3161 35.3971 69.0571C35.6994 68.798 35.8503 68.4529 35.8503 68.0208C35.8503 67.1573 35.2212 66.7255 33.9629 66.7255H32.7598C32.7088 66.7255 32.6676 66.7668 32.6676 66.8177V69.3535H32.6679ZM32.6679 74.4792C32.6679 74.5301 32.7091 74.5714 32.7601 74.5714H34.2038C35.6961 74.5714 36.4428 74.0286 36.4428 72.943C36.4428 71.9561 35.6961 71.4626 34.2038 71.4626H32.7601C32.7091 71.4626 32.6679 71.5039 32.6679 71.5548V74.4792Z" fill="#678985"/>
<path d="M43.7549 76.9027C42.9777 76.9027 42.2466 76.7144 41.562 76.3382C40.8773 75.9619 40.3251 75.4129 39.906 74.6913C39.4866 73.9696 39.2769 73.1032 39.2769 72.0913C39.2769 71.08 39.4866 70.2132 39.906 69.4916C40.3251 68.7699 40.8773 68.221 41.562 67.8447C42.2466 67.4684 42.9777 67.2802 43.7549 67.2802C44.5194 67.2802 45.2443 67.4684 45.929 67.8447C46.6137 68.221 47.1655 68.7699 47.5853 69.4916C48.0047 70.2132 48.2144 71.08 48.2144 72.0913C48.2144 73.1032 48.0047 73.9696 47.5853 74.6913C47.1659 75.4129 46.6137 75.9619 45.929 76.3382C45.2443 76.7144 44.5197 76.9027 43.7549 76.9027ZM43.4364 74.6728C44.1081 74.7958 44.8012 74.4345 45.1034 73.8219C45.3268 73.369 45.4388 72.7922 45.4388 72.0913C45.4388 71.3914 45.3271 70.8148 45.1041 70.3619C44.8022 69.749 44.1091 69.3867 43.4371 69.5098C43.0267 69.5847 42.7102 69.8133 42.4872 70.1947C42.2096 70.6697 42.071 71.3021 42.071 72.0913C42.071 72.8811 42.2096 73.5132 42.4872 73.9881C42.7102 74.3696 43.0264 74.5978 43.4364 74.6728Z" fill="#678985"/>
<path d="M52.9116 76.9027C52.1345 76.9027 51.4034 76.7144 50.7187 76.3382C50.0341 75.9619 49.4818 75.4129 49.0627 74.6913C48.6433 73.9696 48.4336 73.1032 48.4336 72.0913C48.4336 71.08 48.6433 70.2132 49.0627 69.4916C49.4818 68.7699 50.0341 68.221 50.7187 67.8447C51.4034 67.4684 52.1345 67.2802 52.9116 67.2802C53.6762 67.2802 54.4011 67.4684 55.0857 67.8447C55.7704 68.221 56.3223 68.7699 56.742 69.4916C57.1615 70.2132 57.3712 71.08 57.3712 72.0913C57.3712 73.1032 57.1615 73.9696 56.742 74.6913C56.3226 75.4129 55.7704 75.9619 55.0857 76.3382C54.4011 76.7144 53.6762 76.9027 52.9116 76.9027ZM52.5932 74.6728C53.2648 74.7958 53.9579 74.4345 54.2602 73.8219C54.4835 73.369 54.5955 72.7922 54.5955 72.0913C54.5955 71.3914 54.4839 70.8148 54.2608 70.3619C53.9589 69.749 53.2658 69.3867 52.5938 69.5098C52.1835 69.5847 51.867 69.8133 51.6439 70.1947C51.3664 70.6697 51.2277 71.3021 51.2277 72.0913C51.2277 72.8811 51.3664 73.5132 51.6439 73.9881C51.867 74.3696 52.1831 74.5978 52.5932 74.6728Z" fill="#678985"/>
<path d="M58.1323 76.5885V63.8009C58.1323 63.75 58.1736 63.7087 58.2245 63.7087C59.6351 63.7087 60.7784 64.8521 60.7784 66.2627V71.1475H60.8525L62.3315 69.2915C63.2327 68.1608 64.5997 67.5021 66.0457 67.5021H66.5187C66.5972 67.5021 66.6398 67.5943 66.5888 67.6541L63.543 71.2251C63.5167 71.2559 63.5138 71.3004 63.5356 71.3345L66.8683 76.5385C66.9076 76.5998 66.8634 76.6803 66.7907 76.6803H64.9838C64.3852 76.6803 63.832 76.3615 63.5314 75.8441L62.0082 73.2194C61.9767 73.1651 61.9014 73.1574 61.8595 73.2044L60.8015 74.3968C60.7866 74.4137 60.7781 74.4355 60.7781 74.4579V75.6746C60.7781 76.2301 60.3278 76.6803 59.7724 76.6803H58.2242C58.1736 76.6807 58.1323 76.6394 58.1323 76.5885Z" fill="#678985"/>
<path d="M68.2071 75.3521L66.2349 64.7252C66.2245 64.6687 66.268 64.6161 66.3255 64.6161C67.8669 64.6161 69.1755 65.7458 69.4005 67.2706L69.8417 70.2602C69.916 70.8894 69.9959 71.5218 70.0822 72.1567C70.1686 72.7924 70.2488 73.4306 70.3228 74.0718H70.3968C70.5202 73.4306 70.6403 72.7921 70.7575 72.1567C70.8747 71.5214 70.9948 70.8894 71.1181 70.2602L72.2255 65.4355C72.3355 64.9563 72.7621 64.6164 73.2536 64.6164H73.7529C74.3227 64.6164 74.8168 65.0099 74.944 65.5653L76.0215 70.2605C76.1445 70.865 76.265 71.488 76.3822 72.1295C76.499 72.771 76.6195 73.4186 76.7428 74.0724H76.8172C76.9035 73.4186 76.9863 72.7742 77.0672 72.1386C77.147 71.5033 77.2304 70.8774 77.3171 70.2605L77.7849 67.0892C77.9943 65.6689 79.2133 64.6167 80.6489 64.6167C80.7063 64.6167 80.7495 64.6687 80.7395 64.7248L78.8059 75.5921C78.6939 76.2222 78.1459 76.6815 77.5057 76.6815H76.4253C75.7037 76.6815 75.08 76.178 74.9275 75.4729L74.0045 71.2043C73.9055 70.7355 73.8162 70.2638 73.736 69.7888C73.6558 69.3142 73.5851 68.8545 73.5234 68.4101H73.4494C73.375 68.8542 73.2981 69.3139 73.2179 69.7888C73.1377 70.2638 73.0484 70.7358 72.9498 71.2043L72.0515 75.5632C71.9174 76.2144 71.3438 76.6815 70.6789 76.6815H69.8047C69.022 76.6809 68.3503 76.1222 68.2071 75.3521Z" fill="#678985"/>
<path d="M85.0375 76.9027C84.2599 76.9027 83.5292 76.7144 82.8445 76.3382C82.1599 75.9619 81.6073 75.4129 81.1882 74.6913C80.7688 73.9696 80.5591 73.1032 80.5591 72.0913C80.5591 71.08 80.7688 70.2132 81.1882 69.4916C81.6073 68.7699 82.1595 68.221 82.8445 67.8447C83.5292 67.4684 84.2599 67.2802 85.0375 67.2802C85.802 67.2802 86.5269 67.4684 87.2116 67.8447C87.8959 68.221 88.4481 68.7699 88.8679 69.4916C89.287 70.2132 89.497 71.08 89.497 72.0913C89.497 73.1032 89.2873 73.9696 88.8679 74.6913C88.4481 75.4129 87.8962 75.9619 87.2116 76.3382C86.5269 76.7144 85.8023 76.9027 85.0375 76.9027ZM84.7196 74.6731C85.3913 74.7958 86.0841 74.4345 86.386 73.8222C86.6094 73.3694 86.7214 72.7925 86.7214 72.0916C86.7214 71.3917 86.6097 70.8151 86.3866 70.3623C86.0851 69.7497 85.3923 69.3877 84.7203 69.5101C84.3096 69.5851 83.9931 69.8133 83.7697 70.1951C83.4925 70.67 83.3536 71.3024 83.3536 72.0916C83.3536 72.8814 83.4925 73.5135 83.7697 73.9884C83.9928 74.3699 84.3093 74.5981 84.7196 74.6731Z" fill="#678985"/>
<path d="M90.2534 76.5885V67.5948C90.2534 67.5438 90.2946 67.5026 90.3456 67.5026H90.8534C91.7769 67.5026 92.5535 68.195 92.659 69.1125H92.733C93.0661 68.4956 93.467 68.0363 93.9358 67.7337C94.4046 67.4315 94.8733 67.2805 95.3421 67.2805C95.6015 67.2805 95.8141 67.299 95.9807 67.336C96.1173 67.3665 96.2433 67.401 96.3592 67.4396C96.4034 67.4542 96.4274 67.4996 96.4189 67.5454L96.0852 69.3105C96.0362 69.5695 95.783 69.7474 95.5226 69.7056L95.5181 69.7049C95.3635 69.6802 95.1876 69.6679 94.9905 69.6679C94.6454 69.6679 94.2841 69.7945 93.9082 70.0471C93.5352 70.2977 93.2264 70.7262 92.981 71.3336C92.9765 71.3453 92.9739 71.3583 92.9739 71.3706V74.9491C92.9739 75.9055 92.1987 76.6807 91.2423 76.6807H90.3459C90.2946 76.6807 90.2534 76.6395 90.2534 76.5885Z" fill="#678985"/>
<path d="M96.5073 76.5885V67.5948C96.5073 67.5438 96.5486 67.5026 96.5995 67.5026H97.5293C98.2191 67.5026 98.8064 68.0051 98.9132 68.6868H98.9872C99.3696 68.3047 99.7767 67.9746 100.209 67.697C100.64 67.4195 101.159 67.2805 101.763 67.2805C102.417 67.2805 102.944 67.4133 103.345 67.6785C103.715 67.923 104.013 68.2645 104.241 68.7024C104.27 68.7579 104.343 68.7703 104.387 68.7258C104.768 68.345 105.167 68.0142 105.584 67.7337C106.034 67.4315 106.568 67.2805 107.185 67.2805C108.172 67.2805 108.896 67.6107 109.359 68.2703C109.822 68.9306 110.053 69.8341 110.053 70.9814V75.289C110.053 76.0577 109.43 76.6807 108.661 76.6807H107.425C107.374 76.6807 107.333 76.6395 107.333 76.5885V71.333C107.333 70.6668 107.24 70.2107 107.055 69.9636C106.87 69.7169 106.587 69.5936 106.204 69.5936C105.755 69.5936 105.24 69.8802 104.66 70.4532C104.642 70.4707 104.632 70.496 104.632 70.521V75.3263C104.632 76.0743 104.025 76.6807 103.277 76.6807H102.004C101.953 76.6807 101.912 76.6395 101.912 76.5885V71.333C101.912 70.6668 101.822 70.2107 101.643 69.9636C101.464 69.7169 101.177 69.5936 100.783 69.5936C100.321 69.5936 99.8125 69.8802 99.2557 70.4535C99.2385 70.4711 99.2284 70.4957 99.2284 70.5201V75.6604C99.2284 76.2239 98.7717 76.681 98.2078 76.681H96.6002C96.5485 76.6807 96.5073 76.6395 96.5073 76.5885Z" fill="#678985"/>
<rect x="5" width="2" height="210" fill="#78A8A2"/>
<rect y="203" width="140" height="2" fill="#78A8A2"/>
<path d="M45.2617 128.17C45.5505 128.17 45.7774 128.263 45.9425 128.449C46.1178 128.624 46.2055 128.861 46.2055 129.16V138.242C46.2055 138.541 46.1178 138.784 45.9425 138.969C45.7671 139.155 45.5402 139.248 45.2617 139.248C44.9317 139.248 44.679 139.129 44.5036 138.892L38.8566 131.543V138.242C38.8566 138.541 38.774 138.784 38.609 138.969C38.444 139.155 38.2171 139.248 37.9283 139.248C37.6395 139.248 37.4126 139.155 37.2475 138.969C37.0825 138.784 37 138.541 37 138.242V129.16C37 128.861 37.0877 128.624 37.263 128.449C37.4384 128.263 37.6704 128.17 37.9592 128.17C38.279 128.17 38.5265 128.289 38.7018 128.526L44.3334 135.844V129.16C44.3334 128.861 44.4159 128.624 44.581 128.449C44.7563 128.263 44.9832 128.17 45.2617 128.17ZM50.9099 139.279C50.1363 139.279 49.4555 139.119 48.8676 138.799C48.29 138.479 47.8414 138.02 47.5216 137.422C47.2019 136.824 47.042 136.128 47.042 135.333C47.042 134.539 47.2019 133.848 47.5216 133.26C47.8414 132.662 48.29 132.203 48.8676 131.883C49.4555 131.564 50.1363 131.404 50.9099 131.404C51.6835 131.404 52.359 131.564 52.9366 131.883C53.5245 132.203 53.9732 132.662 54.2826 133.26C54.6024 133.848 54.7623 134.539 54.7623 135.333C54.7623 136.128 54.6024 136.824 54.2826 137.422C53.9732 138.02 53.5245 138.479 52.9366 138.799C52.359 139.119 51.6835 139.279 50.9099 139.279ZM50.8944 137.778C51.5236 137.778 52.0032 137.572 52.3332 137.159C52.6633 136.746 52.8283 136.138 52.8283 135.333C52.8283 134.539 52.6633 133.936 52.3332 133.523C52.0032 133.1 51.5287 132.889 50.9099 132.889C50.291 132.889 49.8114 133.1 49.471 133.523C49.141 133.936 48.9759 134.539 48.9759 135.333C48.9759 136.138 49.141 136.746 49.471 137.159C49.8011 137.572 50.2756 137.778 50.8944 137.778ZM63.0499 131.404C63.6997 131.404 64.2773 131.569 64.7827 131.899C65.2984 132.229 65.6955 132.698 65.974 133.307C66.2628 133.905 66.4072 134.596 66.4072 135.38C66.4072 136.164 66.2628 136.85 65.974 137.438C65.6955 138.025 65.3035 138.479 64.7981 138.799C64.2927 139.119 63.71 139.279 63.0499 139.279C62.5135 139.279 62.0339 139.165 61.611 138.938C61.1882 138.711 60.8633 138.397 60.6363 137.995V141.151C60.6363 141.419 60.5487 141.63 60.3733 141.785C60.198 141.94 59.9659 142.017 59.6771 142.017C59.3883 142.017 59.1511 141.935 58.9654 141.77C58.7901 141.604 58.7024 141.388 58.7024 141.12V132.347C58.7024 132.069 58.7849 131.847 58.95 131.682C59.1253 131.517 59.3574 131.435 59.6462 131.435C59.935 131.435 60.167 131.517 60.3424 131.682C60.5177 131.847 60.6054 132.069 60.6054 132.347V132.734C60.8323 132.311 61.1572 131.986 61.5801 131.76C62.0133 131.522 62.5032 131.404 63.0499 131.404ZM62.5393 137.778C63.1479 137.778 63.6223 137.572 63.9627 137.159C64.3031 136.736 64.4732 136.143 64.4732 135.38C64.4732 134.596 64.3031 133.987 63.9627 133.554C63.6223 133.121 63.1479 132.904 62.5393 132.904C61.9205 132.904 61.4409 133.116 61.1005 133.539C60.7704 133.962 60.6054 134.565 60.6054 135.349C60.6054 136.122 60.7704 136.721 61.1005 137.144C61.4409 137.566 61.9205 137.778 62.5393 137.778ZM71.2898 131.435C71.558 131.414 71.7694 131.471 71.9241 131.605C72.0788 131.739 72.1562 131.94 72.1562 132.208C72.1562 132.487 72.0892 132.693 71.9551 132.827C71.821 132.961 71.5786 133.049 71.2279 133.09L70.7638 133.136C70.1552 133.198 69.7066 133.405 69.4178 133.755C69.1393 134.106 69 134.544 69 135.07V138.319C69 138.619 68.9072 138.851 68.7216 139.016C68.5359 139.17 68.3038 139.248 68.0253 139.248C67.7469 139.248 67.5148 139.17 67.3291 139.016C67.1538 138.851 67.0661 138.619 67.0661 138.319V132.332C67.0661 132.043 67.1538 131.821 67.3291 131.667C67.5148 131.512 67.7417 131.435 68.0099 131.435C68.278 131.435 68.4946 131.512 68.6597 131.667C68.8247 131.811 68.9072 132.023 68.9072 132.301V132.92C69.1032 132.466 69.392 132.115 69.7736 131.868C70.1656 131.62 70.5987 131.481 71.0732 131.45L71.2898 131.435ZM77.8967 137.082C78.0721 137.082 78.2113 137.149 78.3144 137.283C78.4279 137.417 78.4846 137.597 78.4846 137.824C78.4846 138.144 78.2938 138.412 77.9122 138.629C77.5615 138.825 77.1644 138.985 76.7209 139.108C76.2774 139.222 75.8545 139.279 75.4522 139.279C74.2352 139.279 73.2708 138.928 72.5591 138.227C71.8474 137.525 71.4916 136.566 71.4916 135.349C71.4916 134.575 71.6463 133.889 71.9557 133.291C72.2651 132.693 72.6983 132.229 73.2553 131.899C73.8226 131.569 74.4621 131.404 75.1738 131.404C75.8545 131.404 76.4476 131.553 76.953 131.852C77.4584 132.151 77.8503 132.574 78.1288 133.121C78.4073 133.668 78.5465 134.312 78.5465 135.055C78.5465 135.498 78.3505 135.72 77.9586 135.72H73.3946C73.4564 136.432 73.6576 136.958 73.9979 137.298C74.3383 137.628 74.8334 137.793 75.4832 137.793C75.8132 137.793 76.102 137.752 76.3496 137.67C76.6074 137.587 76.8962 137.474 77.216 137.329C77.5254 137.164 77.7523 137.082 77.8967 137.082ZM75.2202 132.765C74.6941 132.765 74.2713 132.93 73.9515 133.26C73.6421 133.59 73.4564 134.065 73.3946 134.684H76.8911C76.8705 134.054 76.7157 133.58 76.4269 133.26C76.1381 132.93 75.7359 132.765 75.2202 132.765ZM84.3551 131.992C84.4376 131.806 84.5459 131.667 84.68 131.574C84.8244 131.481 84.9791 131.435 85.1442 131.435C85.3814 131.435 85.5928 131.517 85.7785 131.682C85.9745 131.837 86.0724 132.033 86.0724 132.27C86.0724 132.394 86.0415 132.518 85.9796 132.641L83.1174 138.629C83.0246 138.825 82.8905 138.974 82.7151 139.078C82.5501 139.181 82.3645 139.232 82.1582 139.232C81.9622 139.232 81.7714 139.181 81.5857 139.078C81.4104 138.974 81.2763 138.825 81.1835 138.629L78.3058 132.641C78.2542 132.538 78.2285 132.42 78.2285 132.286C78.2285 132.048 78.3264 131.847 78.5224 131.682C78.7287 131.517 78.9608 131.435 79.2186 131.435C79.5899 131.435 79.8633 131.615 80.0386 131.976L82.2046 136.757L84.3551 131.992ZM87.5108 139.248C87.2323 139.248 87.0002 139.17 86.8145 139.016C86.6392 138.851 86.5515 138.619 86.5515 138.319V132.347C86.5515 132.048 86.6392 131.821 86.8145 131.667C87.0002 131.512 87.2323 131.435 87.5108 131.435C87.7892 131.435 88.0213 131.512 88.207 131.667C88.3926 131.821 88.4855 132.048 88.4855 132.347V138.319C88.4855 138.619 88.3926 138.851 88.207 139.016C88.0213 139.17 87.7892 139.248 87.5108 139.248ZM87.5108 130.058C87.1601 130.058 86.8816 129.965 86.6753 129.779C86.469 129.583 86.3659 129.331 86.3659 129.021C86.3659 128.712 86.469 128.464 86.6753 128.278C86.8816 128.093 87.1601 128 87.5108 128C87.8511 128 88.1245 128.093 88.3307 128.278C88.5473 128.464 88.6556 128.712 88.6556 129.021C88.6556 129.331 88.5525 129.583 88.3462 129.779C88.1399 129.965 87.8614 130.058 87.5108 130.058ZM95.539 137.082C95.7143 137.082 95.8536 137.149 95.9567 137.283C96.0702 137.417 96.1269 137.597 96.1269 137.824C96.1269 138.144 95.9361 138.412 95.5545 138.629C95.2038 138.825 94.8067 138.985 94.3632 139.108C93.9196 139.222 93.4968 139.279 93.0945 139.279C91.8774 139.279 90.913 138.928 90.2014 138.227C89.4897 137.525 89.1338 136.566 89.1338 135.349C89.1338 134.575 89.2885 133.889 89.598 133.291C89.9074 132.693 90.3406 132.229 90.8976 131.899C91.4649 131.569 92.1043 131.404 92.816 131.404C93.4968 131.404 94.0898 131.553 94.5952 131.852C95.1006 132.151 95.4926 132.574 95.7711 133.121C96.0495 133.668 96.1888 134.312 96.1888 135.055C96.1888 135.498 95.9928 135.72 95.6009 135.72H91.0368C91.0987 136.432 91.2998 136.958 91.6402 137.298C91.9806 137.628 92.4757 137.793 93.1254 137.793C93.4555 137.793 93.7443 137.752 93.9918 137.67C94.2497 137.587 94.5385 137.474 94.8582 137.329C95.1677 137.164 95.3946 137.082 95.539 137.082ZM92.8624 132.765C92.3364 132.765 91.9135 132.93 91.5938 133.26C91.2844 133.59 91.0987 134.065 91.0368 134.684H94.5333C94.5127 134.054 94.358 133.58 94.0692 133.26C93.7804 132.93 93.3782 132.765 92.8624 132.765ZM106.948 132.007C107.02 131.821 107.123 131.682 107.258 131.589C107.402 131.497 107.557 131.45 107.722 131.45C107.959 131.45 108.17 131.533 108.356 131.698C108.552 131.852 108.65 132.048 108.65 132.286C108.65 132.42 108.624 132.538 108.573 132.641L106.02 138.629C105.937 138.825 105.808 138.974 105.633 139.078C105.468 139.181 105.282 139.232 105.076 139.232C104.88 139.232 104.694 139.181 104.519 139.078C104.354 138.974 104.23 138.825 104.148 138.629L102.307 134.204L100.527 138.629C100.445 138.825 100.316 138.974 100.141 139.078C99.9757 139.181 99.79 139.232 99.5837 139.232C99.3877 139.232 99.2021 139.181 99.0267 139.078C98.8514 138.974 98.7225 138.825 98.64 138.629L96.1027 132.641C96.0511 132.507 96.0253 132.394 96.0253 132.301C96.0253 132.064 96.1284 131.863 96.3347 131.698C96.541 131.522 96.7679 131.435 97.0155 131.435C97.1908 131.435 97.3507 131.481 97.4951 131.574C97.6395 131.667 97.7478 131.806 97.82 131.992L99.6456 136.71L101.518 132.038C101.6 131.842 101.719 131.698 101.873 131.605C102.028 131.502 102.198 131.45 102.384 131.45C102.57 131.45 102.74 131.502 102.895 131.605C103.049 131.698 103.168 131.842 103.25 132.038L105.138 136.726L106.948 132.007ZM49.1943 146.875C50.2464 146.875 51.0251 147.138 51.5305 147.664C52.0463 148.18 52.3041 148.969 52.3041 150.031V153.806C52.3041 154.085 52.2216 154.306 52.0566 154.472C51.8915 154.626 51.6646 154.704 51.3758 154.704C51.1077 154.704 50.8859 154.621 50.7106 154.456C50.5455 154.291 50.463 154.074 50.463 153.806V153.466C50.2877 153.868 50.0092 154.183 49.6275 154.41C49.2562 154.637 48.823 154.75 48.3279 154.75C47.8225 154.75 47.3636 154.647 46.951 154.441C46.5384 154.234 46.2135 153.951 45.9763 153.59C45.7391 153.229 45.6205 152.826 45.6205 152.383C45.6205 151.826 45.7597 151.388 46.0382 151.068C46.327 150.748 46.7911 150.516 47.4306 150.372C48.0701 150.227 48.952 150.155 50.0762 150.155H50.463V149.799C50.463 149.294 50.3547 148.928 50.1381 148.701C49.9215 148.463 49.5708 148.345 49.086 148.345C48.7869 148.345 48.4827 148.391 48.1732 148.484C47.8638 148.567 47.4976 148.69 47.0748 148.855C46.8066 148.989 46.6106 149.057 46.4868 149.057C46.3012 149.057 46.1465 148.989 46.0227 148.855C45.9093 148.721 45.8525 148.546 45.8525 148.329C45.8525 148.154 45.8938 148.004 45.9763 147.881C46.0691 147.747 46.2187 147.623 46.425 147.509C46.786 147.313 47.214 147.159 47.7091 147.045C48.2145 146.932 48.7096 146.875 49.1943 146.875ZM48.7147 153.358C49.2304 153.358 49.6482 153.187 49.9679 152.847C50.298 152.496 50.463 152.048 50.463 151.501V151.176H50.1845C49.4935 151.176 48.9571 151.207 48.5755 151.269C48.1939 151.331 47.9205 151.439 47.7555 151.594C47.5905 151.749 47.508 151.96 47.508 152.228C47.508 152.558 47.6214 152.832 47.8483 153.048C48.0856 153.254 48.3744 153.358 48.7147 153.358ZM58.6171 147.463C58.6996 147.277 58.8079 147.138 58.942 147.045C59.0864 146.952 59.2411 146.906 59.4061 146.906C59.6433 146.906 59.8548 146.989 60.0404 147.154C60.2364 147.308 60.3344 147.504 60.3344 147.741C60.3344 147.865 60.3035 147.989 60.2416 148.113L57.3794 154.1C57.2865 154.296 57.1525 154.446 56.9771 154.549C56.8121 154.652 56.6264 154.704 56.4201 154.704C56.2242 154.704 56.0334 154.652 55.8477 154.549C55.6724 154.446 55.5383 154.296 55.4454 154.1L52.5678 148.113C52.5162 148.01 52.4904 147.891 52.4904 147.757C52.4904 147.52 52.5884 147.319 52.7844 147.154C52.9907 146.989 53.2227 146.906 53.4806 146.906C53.8519 146.906 54.1252 147.087 54.3006 147.448L56.4666 152.228L58.6171 147.463ZM63.7307 146.875C64.7828 146.875 65.5615 147.138 66.0669 147.664C66.5826 148.18 66.8405 148.969 66.8405 150.031V153.806C66.8405 154.085 66.758 154.306 66.593 154.472C66.4279 154.626 66.201 154.704 65.9122 154.704C65.644 154.704 65.4223 154.621 65.2469 154.456C65.0819 154.291 64.9994 154.074 64.9994 153.806V153.466C64.8241 153.868 64.5456 154.183 64.1639 154.41C63.7926 154.637 63.3594 154.75 62.8644 154.75C62.359 154.75 61.9 154.647 61.4874 154.441C61.0748 154.234 60.7499 153.951 60.5127 153.59C60.2755 153.229 60.1569 152.826 60.1569 152.383C60.1569 151.826 60.2961 151.388 60.5746 151.068C60.8634 150.748 61.3275 150.516 61.967 150.372C62.6065 150.227 63.4884 150.155 64.6126 150.155H64.9994V149.799C64.9994 149.294 64.8911 148.928 64.6745 148.701C64.4579 148.463 64.1072 148.345 63.6224 148.345C63.3233 148.345 63.0191 148.391 62.7096 148.484C62.4002 148.567 62.0341 148.69 61.6112 148.855C61.343 148.989 61.147 149.057 61.0233 149.057C60.8376 149.057 60.6829 148.989 60.5591 148.855C60.4457 148.721 60.3889 148.546 60.3889 148.329C60.3889 148.154 60.4302 148.004 60.5127 147.881C60.6055 147.747 60.7551 147.623 60.9614 147.509C61.3224 147.313 61.7504 147.159 62.2455 147.045C62.7509 146.932 63.246 146.875 63.7307 146.875ZM63.2511 153.358C63.7668 153.358 64.1846 153.187 64.5043 152.847C64.8344 152.496 64.9994 152.048 64.9994 151.501V151.176H64.7209C64.0299 151.176 63.4935 151.207 63.1119 151.269C62.7303 151.331 62.4569 151.439 62.2919 151.594C62.1269 151.749 62.0444 151.96 62.0444 152.228C62.0444 152.558 62.1578 152.832 62.3847 153.048C62.622 153.254 62.9108 153.358 63.2511 153.358ZM68.8369 154.719C68.5585 154.719 68.3264 154.642 68.1407 154.487C67.9654 154.322 67.8777 154.09 67.8777 153.791V147.819C67.8777 147.52 67.9654 147.293 68.1407 147.138C68.3264 146.983 68.5585 146.906 68.8369 146.906C69.1154 146.906 69.3475 146.983 69.5332 147.138C69.7188 147.293 69.8116 147.52 69.8116 147.819V153.791C69.8116 154.09 69.7188 154.322 69.5332 154.487C69.3475 154.642 69.1154 154.719 68.8369 154.719ZM68.8369 145.529C68.4863 145.529 68.2078 145.436 68.0015 145.251C67.7952 145.055 67.6921 144.802 67.6921 144.492C67.6921 144.183 67.7952 143.936 68.0015 143.75C68.2078 143.564 68.4863 143.471 68.8369 143.471C69.1773 143.471 69.4506 143.564 69.6569 143.75C69.8735 143.936 69.9818 144.183 69.9818 144.492C69.9818 144.802 69.8787 145.055 69.6724 145.251C69.4661 145.436 69.1876 145.529 68.8369 145.529ZM71.837 154.719C71.5585 154.719 71.3264 154.642 71.1408 154.487C70.9654 154.322 70.8777 154.09 70.8777 153.791V144.554C70.8777 144.255 70.9654 144.028 71.1408 143.874C71.3264 143.719 71.5585 143.642 71.837 143.642C72.1155 143.642 72.3475 143.719 72.5332 143.874C72.7188 144.028 72.8117 144.255 72.8117 144.554V153.791C72.8117 154.09 72.7188 154.322 72.5332 154.487C72.3475 154.642 72.1155 154.719 71.837 154.719ZM77.1576 146.875C78.2096 146.875 78.9884 147.138 79.4938 147.664C80.0095 148.18 80.2673 148.969 80.2673 150.031V153.806C80.2673 154.085 80.1848 154.306 80.0198 154.472C79.8548 154.626 79.6278 154.704 79.339 154.704C79.0709 154.704 78.8491 154.621 78.6738 154.456C78.5087 154.291 78.4262 154.074 78.4262 153.806V153.466C78.2509 153.868 77.9724 154.183 77.5908 154.41C77.2195 154.637 76.7863 154.75 76.2912 154.75C75.7858 154.75 75.3268 154.647 74.9142 154.441C74.5017 154.234 74.1768 153.951 73.9395 153.59C73.7023 153.229 73.5837 152.826 73.5837 152.383C73.5837 151.826 73.7229 151.388 74.0014 151.068C74.2902 150.748 74.7544 150.516 75.3938 150.372C76.0333 150.227 76.9152 150.155 78.0394 150.155H78.4262V149.799C78.4262 149.294 78.3179 148.928 78.1013 148.701C77.8847 148.463 77.534 148.345 77.0493 148.345C76.7502 148.345 76.4459 148.391 76.1365 148.484C75.827 148.567 75.4609 148.69 75.038 148.855C74.7698 148.989 74.5739 149.057 74.4501 149.057C74.2644 149.057 74.1097 148.989 73.9859 148.855C73.8725 148.721 73.8158 148.546 73.8158 148.329C73.8158 148.154 73.857 148.004 73.9395 147.881C74.0324 147.747 74.1819 147.623 74.3882 147.509C74.7492 147.313 75.1772 147.159 75.6723 147.045C76.1777 146.932 76.6728 146.875 77.1576 146.875ZM76.678 153.358C77.1937 153.358 77.6114 153.187 77.9311 152.847C78.2612 152.496 78.4262 152.048 78.4262 151.501V151.176H78.1477C77.4567 151.176 76.9204 151.207 76.5387 151.269C76.1571 151.331 75.8838 151.439 75.7187 151.594C75.5537 151.749 75.4712 151.96 75.4712 152.228C75.4712 152.558 75.5847 152.832 75.8116 153.048C76.0488 153.254 76.3376 153.358 76.678 153.358ZM85.652 146.875C86.3121 146.875 86.8949 147.035 87.4003 147.355C87.9057 147.674 88.2976 148.128 88.5761 148.716C88.8649 149.304 89.0093 149.99 89.0093 150.774C89.0093 151.558 88.8649 152.254 88.5761 152.862C88.2976 153.461 87.9005 153.925 87.3848 154.255C86.8794 154.585 86.3018 154.75 85.652 154.75C85.1053 154.75 84.6154 154.631 84.1822 154.394C83.7593 154.157 83.4344 153.827 83.2075 153.404V153.791C83.2075 154.069 83.1199 154.291 82.9445 154.456C82.7692 154.621 82.5371 154.704 82.2483 154.704C81.9595 154.704 81.7274 154.621 81.5521 154.456C81.3871 154.291 81.3046 154.069 81.3046 153.791V144.539C81.3046 144.271 81.3922 144.054 81.5676 143.889C81.7532 143.724 81.9904 143.642 82.2792 143.642C82.568 143.642 82.8001 143.719 82.9755 143.874C83.1508 144.028 83.2385 144.24 83.2385 144.508V148.159C83.4654 147.747 83.7903 147.432 84.2132 147.215C84.6361 146.989 85.1157 146.875 85.652 146.875ZM85.1414 153.249C85.75 153.249 86.2244 153.033 86.5648 152.599C86.9052 152.166 87.0754 151.558 87.0754 150.774C87.0754 150 86.9052 149.407 86.5648 148.995C86.2348 148.582 85.7603 148.376 85.1414 148.376C84.5226 148.376 84.043 148.587 83.7026 149.01C83.3726 149.423 83.2075 150.021 83.2075 150.805C83.2075 151.589 83.3726 152.192 83.7026 152.615C84.043 153.038 84.5226 153.249 85.1414 153.249ZM90.6273 154.719C90.3489 154.719 90.1168 154.642 89.9311 154.487C89.7558 154.322 89.6681 154.09 89.6681 153.791V144.554C89.6681 144.255 89.7558 144.028 89.9311 143.874C90.1168 143.719 90.3489 143.642 90.6273 143.642C90.9058 143.642 91.1379 143.719 91.3236 143.874C91.5092 144.028 91.602 144.255 91.602 144.554V153.791C91.602 154.09 91.5092 154.322 91.3236 154.487C91.1379 154.642 90.9058 154.719 90.6273 154.719ZM98.6556 152.553C98.8309 152.553 98.9701 152.62 99.0733 152.754C99.1867 152.888 99.2435 153.069 99.2435 153.296C99.2435 153.615 99.0527 153.884 98.671 154.1C98.3203 154.296 97.9233 154.456 97.4797 154.58C97.0362 154.693 96.6133 154.75 96.2111 154.75C94.994 154.75 94.0296 154.399 93.3179 153.698C92.6063 152.997 92.2504 152.037 92.2504 150.82C92.2504 150.047 92.4051 149.361 92.7146 148.763C93.024 148.164 93.4572 147.7 94.0142 147.37C94.5814 147.04 95.2209 146.875 95.9326 146.875C96.6133 146.875 97.2064 147.025 97.7118 147.324C98.2172 147.623 98.6091 148.046 98.8876 148.592C99.1661 149.139 99.3054 149.784 99.3054 150.526C99.3054 150.97 99.1094 151.192 98.7174 151.192H94.1534C94.2153 151.903 94.4164 152.429 94.7568 152.77C95.0971 153.1 95.5922 153.265 96.242 153.265C96.5721 153.265 96.8609 153.223 97.1084 153.141C97.3663 153.058 97.6551 152.945 97.9748 152.801C98.2842 152.636 98.5112 152.553 98.6556 152.553ZM95.979 148.237C95.453 148.237 95.0301 148.402 94.7104 148.732C94.4009 149.062 94.2153 149.536 94.1534 150.155H97.6499C97.6293 149.526 97.4746 149.051 97.1858 148.732C96.897 148.402 96.4947 148.237 95.979 148.237Z" fill="white"/>
</svg>
