<svg width="80" height="80" viewBox="0 0 80 80" fill="none" xmlns="http://www.w3.org/2000/svg">
<path d="M35.9047 57.124C35.9047 57.2448 35.8541 57.3578 35.7695 57.4255C35.718 57.4667 35.6579 57.4879 35.5974 57.4879C35.5587 57.4879 35.5197 57.4792 35.4828 57.4616C33.6796 56.6033 28.969 54.607 24.1831 54.607C22.1967 54.607 20.4319 54.9679 18.9376 55.6796C18.9006 55.6973 18.8617 55.7059 18.823 55.7059C18.7625 55.7059 18.7024 55.6848 18.6509 55.6435C18.5662 55.5759 18.5156 55.4629 18.5156 55.342V27.346C18.5156 27.1896 18.6 27.0507 18.7253 27.001C19.6386 26.6387 22.0929 25.7959 25.1502 25.7959C27.1317 25.7959 29.0722 26.1909 30.9177 26.9698C32.7376 27.738 34.3786 28.842 35.7951 30.2512C35.8646 30.3203 35.9047 30.4224 35.9047 30.5298V57.124V57.124Z" fill="#FFECD6"/>
<path d="M53.7379 55.3422C53.7379 55.4631 53.6873 55.5761 53.6027 55.6438C53.5511 55.685 53.4911 55.7062 53.4306 55.7062C53.3919 55.7062 53.3529 55.6975 53.3159 55.6799C51.8216 54.9681 50.0567 54.6072 48.0704 54.6072C43.285 54.6072 38.5739 56.6035 36.7705 57.4618C36.7336 57.4794 36.6947 57.4881 36.6559 57.4881C36.5955 57.4881 36.5354 57.467 36.4838 57.4257C36.3993 57.358 36.3486 57.2451 36.3486 57.1242V30.5302C36.3486 30.4227 36.3888 30.3207 36.4583 30.2516C37.1231 29.5902 37.838 28.997 38.597 28.4732C38.6998 30.3085 38.5878 32.3985 38.6306 34.3045C39.1097 34.1154 39.4365 33.0204 40.0486 32.7092C40.4232 33.3013 40.7928 33.899 41.2538 34.3885C41.2538 31.9278 41.2538 29.467 41.2538 27.006C41.2813 26.9942 41.3083 26.9818 41.3358 26.9702C43.1813 26.1913 45.1218 25.7963 47.1034 25.7963C50.1601 25.7963 52.6148 26.639 53.5283 27.0014C53.6536 27.0511 53.738 27.19 53.738 27.3464V55.3422H53.7379Z" fill="#FFECD6"/>
<path d="M56.0286 30.541C55.7112 30.165 55.1956 29.6865 54.5419 29.5426C54.3964 29.5106 54.2908 29.3602 54.2908 29.1848V27.1152C54.2908 26.8333 54.1315 26.5742 53.9038 26.4854C52.8653 26.0818 50.1238 25.1429 47.1041 25.1429C42.8965 25.1429 39.2708 26.6596 36.3279 29.651C36.2703 29.7095 36.199 29.7388 36.1277 29.7388C36.0564 29.7388 35.9851 29.7095 35.9275 29.651C32.9847 26.6596 29.359 25.1429 25.1513 25.1429C22.1311 25.1429 19.39 26.0818 18.3519 26.4853C18.1238 26.5742 17.9645 26.8333 17.9645 27.1152V29.1848C17.9645 29.3601 17.8589 29.5106 17.7133 29.5426C17.0599 29.6864 16.5442 30.165 16.2265 30.5413C16.0805 30.714 16 30.9453 16 31.1927V59.9586C16 60.2099 16.1772 60.3655 16.3414 60.3655C16.385 60.3655 16.4286 60.3553 16.4715 60.3348C18.3126 59.4582 21.8067 57.9875 24.5224 57.9875C27.288 57.9875 31.5648 59.1266 33.7183 59.9355C33.8034 59.9674 33.8725 60.0416 33.9078 60.1387C33.9328 60.2076 33.939 60.2832 33.9266 60.3553C33.9698 60.4561 34.2964 61.0171 36.1277 61.0171C37.9592 61.0171 38.2857 60.4559 38.3289 60.3552C38.3165 60.2832 38.3227 60.2076 38.3477 60.1386C38.3829 60.0416 38.452 59.9674 38.5371 59.9355C40.6904 59.1266 44.967 57.9875 47.7328 57.9875C50.4482 57.9875 53.9427 59.4582 55.7844 60.335C55.8268 60.3553 55.8704 60.3656 55.9139 60.3656C56.0015 60.3656 56.0885 60.3231 56.1528 60.2489C56.2189 60.1725 56.2554 60.0694 56.2554 59.9586V31.1927C56.2554 30.9454 56.1749 30.7141 56.0286 30.541ZM35.9059 57.1243C35.9059 57.2451 35.8552 57.3581 35.7707 57.4258C35.7191 57.467 35.659 57.4882 35.5986 57.4882C35.5598 57.4882 35.5209 57.4795 35.4839 57.4619C33.6808 56.6036 28.9701 54.6073 24.1842 54.6073C22.1979 54.6073 20.433 54.9682 18.9388 55.6799C18.9018 55.6976 18.8629 55.7062 18.8241 55.7062C18.7636 55.7062 18.7036 55.6851 18.652 55.6439C18.5674 55.5762 18.5168 55.4632 18.5168 55.3423V27.3464C18.5168 27.19 18.6012 27.051 18.7265 27.0013C19.6397 26.639 22.094 25.7963 25.1513 25.7963C27.1328 25.7963 29.0733 26.1913 30.9188 26.9702C32.7387 27.7383 34.3797 28.8423 35.7962 30.2516C35.8657 30.3207 35.9059 30.4227 35.9059 30.5302V57.1243V57.1243ZM53.7388 55.3423C53.7388 55.4632 53.6881 55.5762 53.6036 55.6439C53.552 55.6851 53.492 55.7063 53.4315 55.7063C53.3927 55.7063 53.3538 55.6976 53.3168 55.68C51.8225 54.9682 50.0576 54.6073 48.0713 54.6073C43.2858 54.6073 38.5747 56.6036 36.7714 57.4619C36.7345 57.4795 36.6956 57.4882 36.6568 57.4882C36.5964 57.4882 36.5363 57.4671 36.4847 57.4258C36.4002 57.3581 36.3495 57.2452 36.3495 57.1243V30.5303C36.3495 30.4228 36.3896 30.3208 36.4591 30.2517C37.124 29.5903 37.8389 28.9971 38.5979 28.4733C38.7007 30.3086 38.5887 32.3986 38.6314 34.3046C39.1106 34.1155 39.4374 33.0206 40.0494 32.7093C40.4241 33.3014 40.7937 33.8991 41.2547 34.3886C41.2547 31.9279 41.2547 29.4671 41.2547 27.0061C41.2821 26.9943 41.3092 26.9819 41.3367 26.9703C43.1822 26.1914 45.1227 25.7964 47.1043 25.7964C50.1609 25.7964 52.6157 26.6391 53.5292 27.0015C53.6544 27.0512 53.7389 27.1901 53.7389 27.3465V55.3423H53.7388Z" fill="#678985"/>
<circle cx="40" cy="40" r="39.4" stroke="#678985" stroke-width="1.2"/>
<circle cx="50.8569" cy="28" r="11.6" fill="#B4C7C4" stroke="#597773" stroke-width="0.8"/>
<rect x="58.0483" y="37.2373" width="2.89347" height="2.87893" transform="rotate(-45 58.0483 37.2373)" fill="#597773"/>
<rect x="58.313" y="38.2416" width="3.83856" height="8.54765" rx="1" transform="rotate(-45 58.313 38.2416)" fill="#597773"/>
</svg>
