<svg width="36" height="36" viewBox="0 0 36 36" fill="none" xmlns="http://www.w3.org/2000/svg">
<circle cx="18" cy="18" r="18" fill="#FFD36A"/>
<path d="M17.9999 9.35986C13.2357 9.35986 9.35986 13.2357 9.35986 17.9999C9.35986 22.764 13.2357 26.6399 17.9999 26.6399C22.764 26.6399 26.6399 22.764 26.6399 17.9999C26.6399 13.2357 22.764 9.35986 17.9999 9.35986ZM23.7124 13.3442C24.7402 14.6 25.3626 16.1995 25.3789 17.9414C25.1356 17.8899 22.6957 17.395 20.2401 17.7038C20.0397 17.2147 19.8506 16.7843 19.5915 16.2541C22.3201 15.14 23.5568 13.5547 23.7124 13.3442ZM22.892 12.4908C22.7592 12.6799 21.6483 14.173 19.0241 15.1566C17.8148 12.9348 16.4745 11.1095 16.2705 10.8364C18.6108 10.2722 21.077 10.8806 22.892 12.4908ZM14.8623 11.3324C15.0569 11.5993 16.3756 13.4268 17.5985 15.6005C14.1464 16.5172 11.1059 16.504 10.7758 16.4996C11.2544 14.2096 12.7977 12.3063 14.8623 11.3324ZM10.62 18.0111C10.62 17.9357 10.6215 17.8605 10.6237 17.7856C10.9466 17.7922 14.5229 17.8383 18.2083 16.7354C18.4196 17.1488 18.6214 17.5685 18.8067 17.9878C16.138 18.7394 13.7134 20.8978 12.5172 22.9455C11.3385 21.6372 10.62 19.9066 10.62 18.0111ZM13.47 23.8331C14.2409 22.2573 16.333 20.2231 19.3083 19.2081C20.3444 21.9005 20.7729 24.157 20.8826 24.8045C18.5097 25.8153 15.6563 25.538 13.47 23.8331ZM22.1233 24.1289C22.0476 23.6799 21.6548 21.5196 20.6896 18.8671C23.0022 18.4969 25.034 19.1029 25.2865 19.1825C24.9575 21.236 23.7789 23.0094 22.1233 24.1289Z" fill="#284D48"/>
</svg>
