<svg width="80" height="80" viewBox="0 0 80 80" fill="none" xmlns="http://www.w3.org/2000/svg">
<circle cx="40" cy="40" r="39.4" stroke="#678985" stroke-width="1.2"/>
<path d="M18.2949 42.5036C18.4269 42.6385 28.5743 43.1854 28.5743 43.1854L37.7753 34.1881L25.9474 33.9478L18.2949 42.5036Z" fill="#FFEFC9"/>
<path d="M22.4148 39.8666C24.1602 37.9661 28.3534 33.064 28.8797 29.9343C25.7391 30.3904 20.7443 34.4726 18.8052 36.1749C18.121 36.7755 17.5244 37.4258 17.0356 38.0885L12.9621 43.6123C12.8282 44.5568 13.9011 45.6542 14.8484 45.5415L20.462 41.5928C21.1356 41.1191 21.799 40.5372 22.4148 39.8666Z" fill="#597773"/>
<path d="M14.7491 43.2499C14.4742 42.9485 14.1935 42.6195 13.9537 42.2654L12.9733 43.5948C12.8394 44.5394 13.9124 45.6367 14.8596 45.5241L16.261 44.5383C15.6857 44.2165 15.1897 43.7331 14.7491 43.2499Z" fill="#5E889F"/>
<path opacity="0.12" d="M31.8615 34.068L24.7155 42.9681L22.5674 42.8392L31.1465 34.0535L31.8615 34.068Z" fill="#000100"/>
<path d="M36.3801 61C36.2482 60.8651 35.9292 50.7075 35.9292 50.7075L45.1302 41.7102L45.1051 53.5411L36.3801 61Z" fill="#FFEFC9"/>
<path d="M39.1088 56.9403C41.0479 55.238 46.0428 51.1557 49.1834 50.6997C48.6569 53.8293 44.4638 58.7315 42.7185 60.632C42.1027 61.3026 41.4392 61.8844 40.7657 62.3583L35.1521 66.307C34.2048 66.4197 33.1319 65.3223 33.2658 64.3777L37.3393 58.854C37.8281 58.1912 38.4247 57.5409 39.1088 56.9403Z" fill="#597773"/>
<path d="M35.5548 64.5288C35.8499 64.8104 36.1725 65.0984 36.5212 65.3462L35.1702 66.2965C34.2229 66.4092 33.15 65.3118 33.2838 64.3672L34.3008 62.9883C34.6096 63.5707 35.0818 64.0774 35.5548 64.5288Z" fill="#5E889F"/>
<path opacity="0.12" d="M45.118 47.6257L36.0601 54.5705L36.1408 56.7211L45.1164 48.341L45.118 47.6257Z" fill="#000100"/>
<path d="M24.1668 49.9232L22.6992 51.3582L28.6005 57.3937L30.0681 55.9587L24.1668 49.9232Z" fill="#FFEFC9"/>
<path d="M27.8026 59.2784L20.7192 52.034L22.6153 51.0372L28.8417 57.4052L27.8026 59.2784Z" fill="#5E889F"/>
<path d="M52.9069 41.2885C56.491 36.8312 59.0854 31.561 60.5563 26.0425C61.1164 23.9408 61.4814 21.0222 61.2282 19.0471C59.2593 18.7497 56.3334 19.0491 54.2199 19.562C48.67 20.9087 43.3431 23.3842 38.8067 26.8676C33.9826 30.5719 30.6603 35.5995 26.7293 40.1552C24.7976 42.394 22.8658 44.6327 20.9341 46.8715L26.7209 52.7899L32.5077 58.7083C34.7891 56.8272 37.0707 54.9462 39.3521 53.0651C43.9947 49.2372 49.0953 46.0284 52.9069 41.2885Z" fill="#597773"/>
<path d="M27.967 60.2882L19.7921 51.9274C19.7496 51.8839 19.7504 51.814 19.794 51.7714L20.1546 51.4187C20.1982 51.3761 20.268 51.3768 20.3106 51.4203L28.4855 59.7811C28.528 59.8246 28.5272 59.8944 28.4836 59.9371L28.123 60.2897C28.0794 60.3324 28.0095 60.3317 27.967 60.2882Z" fill="#304957"/>
<path opacity="0.15" d="M24.04 50.0479L29.9414 56.0835L28.9633 57.04L23.7661 50.3157L24.04 50.0479Z" fill="#000100"/>
<path opacity="0.19" d="M20.8911 46.8277L32.4648 58.6646L35.8587 55.8785L23.7391 43.6815L20.8911 46.8277Z" fill="#304957"/>
<path d="M13.9536 42.2654C13.9536 42.2654 15.3973 44.2383 16.261 44.5383L16.981 44.0416C16.981 44.0416 15.3364 42.7736 14.5097 41.5141L13.9536 42.2654Z" fill="#AE4845"/>
<path d="M34.02 63.2627C34.02 63.2627 35.4637 65.2356 36.3274 65.5356L37.0474 65.0389C37.0474 65.0389 35.4028 63.7709 34.5761 62.5114L34.02 63.2627Z" fill="#AE4845"/>
<path d="M58.9539 30.8715C59.5841 29.2934 60.1199 27.679 60.5561 26.0425C61.1163 23.9408 61.4813 21.0222 61.2281 19.0471C59.2592 18.7497 56.3333 19.0491 54.2198 19.562C52.5976 19.9556 50.9947 20.4464 49.4248 21.0299C51.0707 23.2985 54.083 26.8921 58.9539 30.8715Z" fill="#FFEFC9"/>
<path d="M50.1962 37.7701C52.4279 35.5384 52.4312 31.9234 50.2035 29.6958C47.9759 27.4681 44.3609 27.4714 42.1292 29.7031C39.8975 31.9347 39.8942 35.5497 42.1219 37.7774C44.3496 40.005 47.9646 40.0018 50.1962 37.7701Z" fill="#ADCBDA"/>
<path opacity="0.2" d="M46.5306 28.0009C47.6808 28.1656 48.791 28.682 49.6878 29.5527C51.9481 31.7473 51.9981 35.3618 49.7995 37.6262C48.5628 38.8998 46.878 39.4749 45.2383 39.3438L46.5306 28.0009Z" fill="white"/>
<path d="M41.9129 38.1135C39.5036 35.7743 39.45 31.9077 41.7936 29.4941C44.1371 27.0806 48.0039 27.0201 50.4132 29.3593C52.8225 31.6985 52.8761 35.5652 50.5325 37.9787C48.1889 40.3923 44.3222 40.4528 41.9129 38.1135ZM49.8748 29.9138C47.7707 27.871 44.3939 27.9238 42.3472 30.0316C40.3006 32.1394 40.3473 35.5162 42.4514 37.559C44.5555 39.6018 47.9324 39.5491 49.979 37.4412C52.0256 35.3335 51.9789 31.9567 49.8748 29.9138Z" fill="#304957"/>
</svg>
