<svg width="37" height="36" viewBox="0 0 37 36" fill="none" xmlns="http://www.w3.org/2000/svg">
<circle cx="18.751" cy="18" r="18" fill="#FFD36A"/>
<path d="M14.9347 25.1993H11.8V15.1046H14.9347V25.1993ZM13.3657 13.7276C12.3633 13.7276 11.5503 12.8974 11.5503 11.895C11.5503 11.4135 11.7416 10.9518 12.082 10.6113C12.4225 10.2709 12.8842 10.0796 13.3657 10.0796C13.8472 10.0796 14.3089 10.2709 14.6494 10.6113C14.9899 10.9518 15.1811 11.4135 15.1811 11.895C15.1811 12.8974 14.3677 13.7276 13.3657 13.7276ZM26.6669 25.1993H23.539V20.2853C23.539 19.1141 23.5153 17.6123 21.9092 17.6123C20.2794 17.6123 20.0296 18.8846 20.0296 20.2009V25.1993H16.8983V15.1046H19.9048V16.4816H19.9486C20.3671 15.6885 21.3894 14.8515 22.9146 14.8515C26.0871 14.8515 26.6703 16.9406 26.6703 19.6541V25.1993H26.6669Z" fill="#284D48"/>
</svg>
