<svg width="20" height="17" viewBox="0 0 20 17" fill="none" xmlns="http://www.w3.org/2000/svg">
<path d="M17.5631 17H1.81688C0.813431 17 0 16.1845 0 15.1786V1.82143C0 0.815469 0.813431 0 1.81688 0H17.5631C18.5666 0 19.38 0.815469 19.38 1.82143V15.1786C19.38 16.1845 18.5666 17 17.5631 17ZM4.84501 3.33929C4.00883 3.33929 3.33094 4.01887 3.33094 4.85714C3.33094 5.69542 4.00883 6.375 4.84501 6.375C5.68118 6.375 6.35907 5.69542 6.35907 4.85714C6.35907 4.01887 5.68118 3.33929 4.84501 3.33929ZM4.84501 6.98214C4.00883 6.98214 3.33094 7.66173 3.33094 8.5C3.33094 9.33827 4.00883 10.0179 4.84501 10.0179C5.68118 10.0179 6.35907 9.33827 6.35907 8.5C6.35907 7.66173 5.68118 6.98214 4.84501 6.98214ZM4.84501 10.625C4.00883 10.625 3.33094 11.3046 3.33094 12.1429C3.33094 12.9811 4.00883 13.6607 4.84501 13.6607C5.68118 13.6607 6.35907 12.9811 6.35907 12.1429C6.35907 11.3046 5.68118 10.625 4.84501 10.625ZM15.7463 5.46429V4.25C15.7463 3.99853 15.5429 3.79464 15.292 3.79464H7.72173C7.47088 3.79464 7.26751 3.99853 7.26751 4.25V5.46429C7.26751 5.71576 7.47088 5.91964 7.72173 5.91964H15.292C15.5429 5.91964 15.7463 5.71576 15.7463 5.46429ZM15.7463 9.10714V7.89286C15.7463 7.64139 15.5429 7.4375 15.292 7.4375H7.72173C7.47088 7.4375 7.26751 7.64139 7.26751 7.89286V9.10714C7.26751 9.35861 7.47088 9.5625 7.72173 9.5625H15.292C15.5429 9.5625 15.7463 9.35861 15.7463 9.10714ZM15.7463 12.75V11.5357C15.7463 11.2842 15.5429 11.0804 15.292 11.0804H7.72173C7.47088 11.0804 7.26751 11.2842 7.26751 11.5357V12.75C7.26751 13.0015 7.47088 13.2054 7.72173 13.2054H15.292C15.5429 13.2054 15.7463 13.0015 15.7463 12.75Z" fill="#ACACAC"/>
</svg>
