<svg width="80" height="80" viewBox="0 0 80 80" fill="none" xmlns="http://www.w3.org/2000/svg">
<circle cx="40" cy="40" r="39.4" stroke="#678985" stroke-width="1.2"/>
<path d="M63.5139 24.4259L42.9467 17.7118C42.7552 17.6495 42.5451 17.6762 42.3757 17.7852L37.2762 21.0613C37.0838 21.1847 36.9673 21.3977 36.9673 21.6261V50.381C36.9673 50.6715 37.1543 50.9291 37.4305 51.0191L57.9979 57.7334C58.0659 57.7556 58.1362 57.7665 58.2064 57.7665C58.346 57.7665 58.4843 57.7229 58.6004 57.6389C58.7746 57.5124 58.8776 57.3102 58.8776 57.095V55.8963L61.7845 54.0288L63.0973 54.4574C63.3007 54.5238 63.5256 54.4887 63.6998 54.3626C63.874 54.2364 63.977 54.0341 63.977 53.8192V25.0641C63.9771 24.7737 63.7904 24.5161 63.5139 24.4259ZM62.357 25.7074L61.878 53.74L58.8408 55.6883L59.289 27.5959L39.232 21.0616L42.4399 19.0039" fill="#597773"/>
<path d="M62.3564 25.7075L61.8775 53.7401L58.8403 55.6884L59.2884 27.596L39.2314 21.0617L42.4393 19.004L62.3564 25.7075Z" fill="#FFECD6"/>
<path d="M53.1656 27.2986L32.5985 20.5845C32.407 20.5223 32.1969 20.5489 32.0275 20.658L26.9281 23.934C26.7356 24.0574 26.6191 24.2704 26.6191 24.4989V53.2537C26.6191 53.5443 26.8062 53.8019 27.0824 53.8919L47.6498 60.6062C47.7178 60.6285 47.7881 60.6393 47.8583 60.6393C47.9978 60.6393 48.1361 60.5958 48.2523 60.5116C48.4265 60.3852 48.5294 60.183 48.5294 59.9679V58.7691L51.4364 56.9016L52.7492 57.3303C52.9526 57.3967 53.1775 57.3615 53.3516 57.2355C53.5259 57.1093 53.6288 56.907 53.6288 56.692V27.9369C53.6289 27.6464 53.4421 27.3888 53.1656 27.2986ZM52.0087 28.5802L51.5297 56.6127L48.4925 58.561L48.9407 30.4687L28.8837 23.9344L32.0917 21.8766" fill="#9C9C9C"/>
<path d="M52.0078 28.5802L51.5288 56.6127L48.4916 58.5611L48.9399 30.4687L28.8828 23.9344L32.0907 21.8766L52.0078 28.5802Z" fill="#FFECD6"/>
<path d="M42.818 30.7149L22.2509 24.0009C22.0594 23.9386 21.8493 23.9653 21.6799 24.0743L16.5804 27.3504C16.388 27.4738 16.2715 27.6867 16.2715 27.9152V56.6701C16.2715 56.9605 16.4585 57.2182 16.7347 57.3081L37.3021 64.0224C37.3701 64.0447 37.4404 64.0556 37.5106 64.0556C37.6502 64.0556 37.7885 64.012 37.9046 63.9279C38.0788 63.8015 38.1818 63.5992 38.1818 63.3841V62.1853L41.0887 60.3179L42.4015 60.7465C42.6049 60.8129 42.8298 60.7778 43.004 60.6517C43.1783 60.5255 43.2812 60.3232 43.2812 60.1082V31.3532C43.2813 31.0627 43.0946 30.8051 42.818 30.7149ZM41.6612 31.9965L41.1822 60.029L38.145 61.9773L38.5932 33.8849L18.5362 27.3507L21.7441 25.2929" fill="#597773"/>
<path d="M41.6612 31.9965L41.1821 60.029L38.145 61.9774L38.5932 33.885L18.5361 27.3507L21.744 25.2929L41.6612 31.9965Z" fill="#FFECD6"/>
</svg>
