<svg width="80" height="80" viewBox="0 0 80 80" fill="none" xmlns="http://www.w3.org/2000/svg">
<path d="M62.4537 53.3319C62.4537 53.3319 59.1339 57.1622 62.6558 60.1405H21.891L21.6885 52.8597L62.4537 53.3319Z" fill="#F4EAD1"/>
<path d="M21.6885 57.3787C22.232 57.0232 28.5652 52.8783 61.6486 54.5475C61.6486 54.5475 61.7408 53.8931 62.5059 53.311L22.242 52.5132L21.6885 57.3787Z" fill="#CECECD"/>
<path d="M22.2322 55.8053C22.2322 55.5224 22.2322 55.2041 22.2322 54.8585C22.2322 53.1748 23.7298 53.311 23.7298 53.311H63.2707V51.3775H23.3215C22.4833 51.3775 21.9007 51.5982 21.4957 51.9197V51.9188L21.4938 51.9197C21.458 51.9488 21.4248 51.9769 21.3921 52.006C21.388 52.0092 21.3853 52.0123 21.3826 52.0155C21.3635 52.0319 21.3444 52.0477 21.3286 52.0655C20.5725 52.7602 17.6468 55.9161 21.0139 60.3766C21.384 60.9578 22.0678 61.4514 23.3215 61.4514H63.2707V59.5179H23.7298C23.7298 59.5179 22.2322 59.6542 22.2322 57.9718C22.2322 57.6248 22.2322 57.3079 22.2322 57.0227C22.2322 57.0232 22.2322 56.5382 22.2322 55.8053Z" fill="#678985"/>
<path d="M23.7298 59.5184C23.7298 59.5184 22.2322 59.6546 22.2322 57.9722C22.2322 57.6253 22.2322 57.3084 22.2322 57.0232C22.2322 57.0232 22.2322 56.5382 22.2322 55.8053C22.2322 55.5224 22.2322 55.2041 22.2322 54.8585C22.2322 53.1748 23.7298 53.311 23.7298 53.311H30.6201V51.3775H23.3215C22.4833 51.3775 21.9007 51.5982 21.4957 51.9197V51.9188L21.4938 51.9197C21.458 51.9488 21.4248 51.9769 21.3921 52.006C21.388 52.0092 21.3853 52.0123 21.3826 52.0155C21.3635 52.0319 21.3444 52.0477 21.3286 52.0655C20.5725 52.7602 17.6468 55.9161 21.0139 60.3766C21.384 60.9578 22.0678 61.4514 23.3215 61.4514H30.6201V59.5179H23.7298V59.5184Z" fill="#678985"/>
<path d="M35.6086 56.5787C34.1256 56.3216 32.2656 56.4433 32.2656 56.4433C32.2656 56.4433 34.373 57.6648 34.2709 60.3589L35.8797 58.519L38.0979 59.8404C38.0979 59.8408 37.4 57.1585 35.6086 56.5787Z" fill="#D0C6AE"/>
<path d="M38.382 50.6642C38.382 51.0937 38.1036 51.4416 37.7572 51.4416H31.9226C31.5766 51.4416 31.2969 51.0937 31.2969 50.6642V21.7615C31.2969 21.3324 31.5766 20.9841 31.9226 20.9841H37.7572C38.1036 20.9841 38.382 21.3324 38.382 21.7615V50.6642Z" fill="#92AEAB"/>
<path d="M45.4669 50.7591C45.4669 51.1359 45.1881 51.4415 44.843 51.4415H39.0075C38.6624 51.4415 38.3813 51.1359 38.3813 50.7591V25.3874C38.3813 25.0101 38.6624 24.7049 39.0075 24.7049H44.843C45.1881 24.7049 45.4669 25.0101 45.4669 25.3874V50.7591Z" fill="#D0C6AE"/>
<path d="M45.467 26.7742H38.3818V39.8019H45.467V26.7742Z" fill="#678985"/>
<path d="M32.0243 20.9365C31.6229 20.9365 31.2969 21.2852 31.2969 21.7148V50.6628C31.2969 51.0928 31.6229 51.4416 32.0243 51.4416H33.5133V20.9365H32.0243V20.9365Z" fill="#678985"/>
<path d="M38.3815 27.7995H31.2969V34.2534H38.3815V27.7995Z" fill="#678985"/>
<path d="M38.3815 41.25H31.2969V42.155H38.3815V41.25Z" fill="#FFEFC9"/>
<path d="M33.5133 27.7995H31.2969V34.2534H33.5133V27.7995Z" fill="#678985"/>
<path d="M33.5133 41.25H31.2969V42.155H33.5133V41.25Z" fill="#CBC3B2"/>
<path d="M64.2238 47.1323C64.4208 47.5536 64.2474 48.0504 63.8355 48.2429L56.8907 51.4883C56.4798 51.6804 55.9862 51.4947 55.7891 51.0737L42.5389 22.7174C42.3422 22.296 42.5166 21.7987 42.9276 21.6071L49.8715 18.3618C50.2838 18.1692 50.776 18.3549 50.9731 18.7763L64.2238 47.1323Z" fill="#678985"/>
<path d="M42.9511 21.6562C42.5402 21.8478 42.3658 22.3455 42.5634 22.7664L55.8136 51.1233C56.0107 51.5442 56.5043 51.7299 56.9152 51.5378L58.4378 50.8263L44.4742 20.9437L42.9511 21.6562Z" fill="#678985"/>
<path d="M62.8145 44.1325L54.3804 48.0731L54.8692 49.1193L63.3033 45.1787L62.8145 44.1325Z" fill="#DAD2BF"/>
<path d="M62.0025 42.3653L53.5679 46.3061L54.0565 47.3519L62.4911 43.4111L62.0025 42.3653Z" fill="#DAD2BF"/>
<path d="M60.4657 39.0479L52.0249 42.9925L52.5138 44.0387L60.9546 40.0941L60.4657 39.0479Z" fill="#DAD2BF"/>
<path d="M58.8203 35.5531L50.3906 39.4925L50.8794 40.5383L59.309 36.5989L58.8203 35.5531Z" fill="#DAD2BF"/>
<path d="M51.3295 24.2613C51.9502 25.5899 51.3767 27.1702 50.0485 27.7914C48.7199 28.4116 47.1392 27.8381 46.518 26.5099C45.8977 25.1813 46.4717 23.6006 47.8003 22.9798C49.129 22.3587 50.7083 22.9331 51.3295 24.2613Z" fill="#DAD2BF"/>
<path d="M31.2965 50.5997C31.2965 51.0642 30.9287 51.4416 30.4751 51.4416H22.8087C22.3551 51.4416 21.9873 51.0642 21.9873 50.5997V19.2999C21.9873 18.835 22.3547 18.4581 22.8087 18.4581H30.4751C30.9287 18.4581 31.2965 18.835 31.2965 19.2999V50.5997Z" fill="#61313E"/>
<path d="M31.2965 50.5997C31.2965 51.0642 30.9287 51.4416 30.4751 51.4416H22.8087C22.3551 51.4416 21.9873 51.0642 21.9873 50.5997V19.2999C21.9873 18.835 22.3547 18.4581 22.8087 18.4581H30.4751C30.9287 18.4581 31.2965 18.835 31.2965 19.2999V50.5997Z" fill="#678985"/>
<path d="M22.8088 18.5125C22.3551 18.5125 21.9873 18.8894 21.9873 19.3549V50.6551C21.9873 51.1192 22.3547 51.4965 22.8088 51.4965H24.4907V18.5125H22.8088Z" fill="#5F7875"/>
<path d="M31.2961 44.7288H21.9873V45.958H31.2961V44.7288Z" fill="#FFEFC9"/>
<path d="M31.2961 46.6587H21.9873V47.8883H31.2961V46.6587Z" fill="#FFEFC9"/>
<path d="M24.4907 44.7288H21.9873V45.9208H24.4907V44.7288Z" fill="#678985"/>
<path d="M24.4907 46.6587H21.9873V47.8883H24.4907V46.6587Z" fill="#678985"/>
<path d="M31.2961 21.3833H21.9873V31.1012H31.2961V21.3833Z" fill="#FFEFC9"/>
<path d="M24.4902 21.3833H21.9873V31.1012H24.4902V21.3833Z" fill="#D0C6AE"/>
<path d="M31.2961 24.4097H21.9873V28.7154H31.2961V24.4097Z" fill="#678985"/>
<path d="M24.4902 24.4097H21.9873V28.7308H24.4902V24.4097Z" fill="#678985"/>
<path d="M45.467 31.3423H38.3818V32.5715H45.467V31.3423Z" fill="#D0C6AE"/>
<path d="M45.467 33.2722H38.3818V34.5018H45.467V33.2722Z" fill="#D0C6AE"/>
<path d="M39.6923 31.3423H38.3818V32.5715H39.6923V31.3423Z" fill="#678985"/>
<path d="M39.6923 33.2722H38.3818V34.5018H39.6923V33.2722Z" fill="#678985"/>
<path d="M38.8119 24.7049C38.5753 24.7049 38.3818 25.0105 38.3818 25.3874V50.7591C38.3818 51.1359 38.5753 51.4415 38.8119 51.4415H39.6923V24.7049H38.8119Z" fill="#62817D"/>
<circle cx="40" cy="40" r="39.4" stroke="#678985" stroke-width="1.2"/>
</svg>
