<svg width="36" height="36" viewBox="0 0 36 36" fill="none" xmlns="http://www.w3.org/2000/svg">
<circle cx="18" cy="18" r="18" fill="#FFD36A"/>
<path d="M24.9005 14.9451C24.9113 15.0954 24.9113 15.2457 24.9113 15.396C24.9113 19.9803 21.4221 25.2624 15.0448 25.2624C13.0801 25.2624 11.255 24.6934 9.71973 23.7057C9.99887 23.7379 10.2672 23.7486 10.5571 23.7486C12.1783 23.7486 13.6706 23.2011 14.8623 22.2671C13.3378 22.2349 12.0602 21.2364 11.62 19.8622C11.8347 19.8944 12.0494 19.9158 12.2749 19.9158C12.5863 19.9158 12.8976 19.8729 13.1875 19.7978C11.5985 19.4757 10.4068 18.08 10.4068 16.3944V16.3515C10.8684 16.6092 11.4053 16.7702 11.9743 16.7917C11.0402 16.1689 10.4283 15.1061 10.4283 13.9036C10.4283 13.2595 10.6 12.669 10.9007 12.1537C12.6077 14.2579 15.1736 15.6321 18.0509 15.7825C17.9972 15.5248 17.965 15.2564 17.965 14.988C17.965 13.077 19.511 11.5203 21.4327 11.5203C22.4312 11.5203 23.333 11.939 23.9665 12.6153C24.7502 12.465 25.5017 12.1752 26.1674 11.7779C25.9097 12.5832 25.3621 13.2595 24.6428 13.6889C25.3407 13.6138 26.0171 13.4205 26.6397 13.1522C26.1674 13.8392 25.5769 14.4512 24.9005 14.9451Z" fill="#284D48"/>
</svg>
